inDegrees=no
num_controls=7
num_derivatives=13
num_iterations=199
num_multipliers=7
num_parameters=0
num_slacks=7
num_states=26
objective=5.983847
objective_accelerations=0.474231
objective_balance=0.034319
objective_effort=0.464437
objective_height=4.937151
objective_ligament=0.073709
solver_duration=1730.232482
status=Solve_Succeeded
success=true
DataType=double
version=3
OpenSimVersion=4.4-2022-07-23-0e9fedc
endheader
time	/jointset/ground_pelvis/pelvis_tilt/value	/jointset/ground_pelvis/pelvis_tx/value	/jointset/ground_pelvis/pelvis_ty/value	/jointset/hip_r/hip_flexion_r/value	/jointset/hip_r/hip_adduction_r/value	/jointset/hip_r/hip_rotation_r/value	/jointset/back/lumbar_extension/value	/jointset/patellofemoral_r/patellar_flexion_r/value	/jointset/knee_r/knee_flexion_r/value	/jointset/knee_r/knee_adduction_r/value	/jointset/knee_r/knee_rotation_r/value	/jointset/ankle_r/ankle_angle_r/value	/jointset/subtalar_r/subtalar_angle_r/value	/jointset/ground_pelvis/pelvis_tilt/speed	/jointset/ground_pelvis/pelvis_tx/speed	/jointset/ground_pelvis/pelvis_ty/speed	/jointset/hip_r/hip_flexion_r/speed	/jointset/hip_r/hip_adduction_r/speed	/jointset/hip_r/hip_rotation_r/speed	/jointset/back/lumbar_extension/speed	/jointset/patellofemoral_r/patellar_flexion_r/speed	/jointset/knee_r/knee_flexion_r/speed	/jointset/knee_r/knee_adduction_r/speed	/jointset/knee_r/knee_rotation_r/speed	/jointset/ankle_r/ankle_angle_r/speed	/jointset/subtalar_r/subtalar_angle_r/speed	/forceset/tau_hip_flexion_r	/forceset/tau_hip_adduction_r	/forceset/tau_hip_rotation_r	/forceset/tau_knee_flexion_r	/forceset/tau_ankle_angle_r	/forceset/tau_subtalar_angle_r	/forceset/tau_lumbar_extension	lambda_cid13_p0	lambda_cid14_p0	lambda_cid14_p1	lambda_cid14_p2	lambda_cid14_p3	lambda_cid14_p4	lambda_cid14_p5	/jointset/ground_pelvis/pelvis_tilt/accel	/jointset/ground_pelvis/pelvis_tx/accel	/jointset/ground_pelvis/pelvis_ty/accel	/jointset/hip_r/hip_flexion_r/accel	/jointset/hip_r/hip_adduction_r/accel	/jointset/hip_r/hip_rotation_r/accel	/jointset/back/lumbar_extension/accel	/jointset/patellofemoral_r/patellar_flexion_r/accel	/jointset/knee_r/knee_flexion_r/accel	/jointset/knee_r/knee_adduction_r/accel	/jointset/knee_r/knee_rotation_r/accel	/jointset/ankle_r/ankle_angle_r/accel	/jointset/subtalar_r/subtalar_angle_r/accel	gamma_cid13_p0	gamma_cid14_p0	gamma_cid14_p1	gamma_cid14_p2	gamma_cid14_p3	gamma_cid14_p4	gamma_cid14_p5
0	-0.006516716439720149	0.09626122181218953	0.9427240278591186	0.1762555651711513	-0.2321527099401012	-0.2616407597307667	-0.0385979564078546	0.07317816487762437	0.07317816487761825	0.1745329251994329	0.1745329135672017	0.0324735960626065	-0.003451806861076558	0	0	0	0	0	0	0	0	0	0	0	0	0	0.2281902236647654	-0.1768354613081282	-0.04645897496047506	-0.4218510930999225	0.4297347424012806	-0.1405471150326173	-0.1219775558937206	-39.07624344462046	88.61347246394513	-35.78962438504332	-4.953225042307297	-43.37186651329635	-678.6790240881454	65.57567181547486	-1.66615165105232	-0.8173022189450655	-0.559264159067644	8.037448658547961	0.002485082714371551	2.43801652995319	-4.760206904133383	8.984332212444848	8.98433221244461	-2.423079048839389	0.1749625693683383	3.343856336262428	0.751384699007684	7.970927056733098e-08	2.767969453487434e-08	-5.901656568699625e-07	1.785977019808543e-07	4.004642442874858e-08	-7.695175581130867e-09	-3.071259850069301e-07
0.01	-0.006593833075675785	0.09622094923346282	0.9426971486220183	0.1766438282546618	-0.2321516078032135	-0.2615114026990519	-0.03883812155084025	0.07361472718933977	0.07361472718934396	0.1744123292404574	0.1745306456682786	0.03263680560565042	-0.003414219185580534	-0.01534024000526735	-0.008023842441337163	-0.005364521769614883	0.07729841120644265	0.0001708393937543346	0.0257517399662621	-0.04770980346829635	0.08694662587227649	0.08694662587227729	-0.02390520807316308	-0.0004411317315881622	0.03248501473944939	0.00742988122833702	0.2223893018789898	-0.1908116556244122	-0.0448263318541595	-0.4137096962086628	0.4146075880781837	-0.1228702744688185	-0.1173713840636728	-39.09084789880114	84.41172815855305	-28.93242273493386	-5.950325483433199	-41.05031500762799	-679.0102341042594	78.63172353016125	-1.455494171412776	-0.790316251794851	-0.5233488773801949	7.522908755260191	0.01688771856865171	2.62584700325821	-4.72788329884869	8.494936362093721	8.49493636209394	-2.342198772024623	-0.1517312740177257	3.177301776881761	0.7255697724632456	1.10192563632095e-07	2.525544622600672e-08	-8.194294615605105e-07	1.765031827503522e-07	6.972916055618806e-08	-1.553020054861931e-07	-3.717444005955887e-07
0.02	-0.006821858910913194	0.09610136003130935	0.9426169636289274	0.1777944497309518	-0.2321502964022153	-0.2611281094130136	-0.03954568797464204	0.07490977747728236	0.07490977747728753	0.1740590891708494	0.1745243504059366	0.03312016084290864	-0.00330497671025779	-0.03018183985649005	-0.01586332468534854	-0.01066115119809159	0.1524716785555961	4.185282201857432e-05	0.05078725086433952	-0.09348025616342942	0.1716975952435393	0.1716975952435403	-0.04652869956511777	-0.0008054726469833158	0.06402913884272074	0.01433095996533454	0.2165883800932225	-0.204787849940705	-0.04319368874792195	-0.4055682993173911	0.3994804337550836	-0.1051934339050284	-0.1127652122336128	-39.13408603190918	80.28800846530902	-22.07873203753003	-6.92725018253523	-38.92170725948057	-678.1700830914832	91.47989537626474	-1.566423620243404	-0.7804301794798911	-0.5456856908400107	7.612419887090095	-0.05748011038367373	2.294770716315992	-4.372336749500721	8.545200912242146	8.545200912241789	-2.166735732597647	0.1903207326072083	3.155678209026831	0.645624200739761	1.406758566968591e-07	2.28311979171391e-08	-1.048693266251059e-06	1.7440866351985e-07	9.941189668362754e-08	-3.029088353912553e-07	-4.363628161842473e-07
0.03	-0.007196139275638208	0.09590420226282748	0.9424839329682139	0.1796868921308737	-0.2321517347611969	-0.2604996994234324	-0.04070113389344383	0.07704202234059279	0.07704202234058903	0.1734861382016741	0.1745163320387721	0.0339142787752302	-0.003129285844168063	-0.04458782836833284	-0.02354542406651905	-0.01594867117469504	0.2256701383678996	-0.0003687415006281511	0.07477231794539776	-0.1373095003936184	0.2543829824451182	0.2543829824451225	-0.067846924820071	-0.0008068372318181537	0.09462618720327171	0.02072885112468652	0.2101770122172305	-0.1941860060572863	-0.04155646986987504	-0.3972969657521089	0.3887199273448724	-0.1095102340796769	-0.107758735840921	-39.20487471427289	76.7021380230682	-24.58661660690772	-6.521441813553898	-36.467195727544	-677.6618322096484	85.345162825956	-1.364714861137936	-0.7586590734130378	-0.5208998637394996	7.121563967884954	-0.03885236046441867	2.432064824351897	-4.34330417926884	8.07492012004011	8.074920120040817	-2.082327806880127	-0.09659064055663123	2.986503609954647	0.6249719614630086	1.523646696946872e-07	1.53662000516007e-08	-1.14369016330557e-06	1.525847892532641e-07	1.174144240039541e-07	-4.168328258770713e-07	-4.496339780205055e-07
0.04	-0.007711885204377297	0.09563091164933839	0.9422979041652002	0.1823009201168377	-0.2321584797168571	-0.2596351007389707	-0.04228588943844511	0.07999006357508653	0.07999006357508701	0.1727064126029856	0.1745080549084766	0.03500932428323456	-0.002891995988898786	-0.0584749526595042	-0.03108989368678617	-0.02126077965806028	0.2967887957635832	-0.0010194665136448	0.0980249898404978	-0.179342181403441	0.3348568694836698	0.3348568694836792	-0.08788362547246198	-0.0008572252777654059	0.1242146539792388	0.02665075780124172	0.2037656443412487	-0.1835841621738677	-0.03991925099167914	-0.3890256321868504	0.3779594209346595	-0.113827034254328	-0.1027522594482186	-39.30177397618471	73.18812462369432	-27.10230672027372	-6.091101047715247	-34.19157188257647	-676.0736762250173	79.00938512358516	-1.46265077610913	-0.7529042272991974	-0.5506033921923683	7.196459403766118	-0.1055062484576754	2.148291679124258	-4.013024105427418	8.102900879636687	8.102900879636712	-1.910430812085152	0.1805160403848227	2.953961892110053	0.5504273041803894	1.636659676395889e-07	7.797269205512385e-09	-1.235918670511916e-06	1.303541241611919e-07	1.351761222767114e-07	-5.3006232482847e-07	-4.618464335938276e-07
0.05	-0.00836441951007375	0.09528292353175408	0.9420584288864027	0.1856164896769946	-0.2321730097837675	-0.2585432355865042	-0.04428162579171759	0.08373254824175644	0.08373254824175791	0.1717330236142171	0.1745006427433014	0.03639543683339117	-0.002597870035491987	-0.07195241787389467	-0.03847700066798096	-0.02664978210857232	0.3659787632503014	-0.001912841751365631	0.1202186549690245	-0.219514026129348	0.4132694101587237	0.4132694101587305	-0.1065888368272179	-0.0006441200660886538	0.1528484716687634	0.03211239073590332	0.197349298325092	-0.1815870149721434	-0.03811193751714018	-0.381889330683201	0.3665213268219363	-0.109980286755037	-0.09772025581803442	-39.42310910866117	69.74074823984395	-26.10860065826198	-6.165769757119556	-32.16717960056544	-674.9386776044605	79.73543917011912	-1.278355126776146	-0.7269773804331504	-0.5354815000035825	6.72831733394513	-0.08534753514538117	2.235547919475217	-3.975605187899723	7.654799783097658	7.65479978309724	-1.819947909527971	-0.0610600171252821	2.794213994131163	0.5345452780732614	1.644197479780134e-07	1.9960787183191e-09	-1.237619655889012e-06	1.258655287240817e-07	1.429549777265596e-07	-6.035953243293887e-07	-4.674073612046531e-07
